<svg version="1.0" xmlns="http://www.w3.org/2000/svg"
 width="1280.000000pt" height="298.000000pt" viewBox="0 0 1280.000000 298.000000"
 preserveAspectRatio="xMidYMid meet">

<g transform="translate(0.000000,298.000000) scale(0.100000,-0.100000)"
fill="#ffffff" stroke="none">
<path d="M1588 2486 c-77 -27 -101 -43 -224 -148 -99 -84 -142 -142 -170 -226
-38 -118 10 -261 121 -357 33 -30 186 -162 340 -295 154 -133 322 -279 373
-324 52 -44 99 -82 105 -84 12 -2 132 95 132 108 0 3 -74 71 -165 149 -232
201 -416 360 -464 401 -135 116 -221 197 -237 224 -30 49 -34 107 -11 158 19
44 136 160 215 214 78 53 211 56 284 7 20 -14 83 -65 139 -114 56 -49 105 -89
109 -89 4 0 36 25 71 56 50 44 61 59 51 68 -43 42 -228 195 -257 213 -109 67
-285 84 -412 39z"/>
<path d="M2840 2496 c-59 -17 -116 -46 -166 -88 -43 -34 -148 -125 -572 -492
-286 -248 -268 -216 -170 -298 57 -47 25 -65 268 147 389 338 636 548 661 560
41 21 120 28 181 16 46 -10 70 -24 150 -91 132 -109 152 -136 156 -219 5 -85
-8 -104 -157 -235 l-113 -100 64 -57 c34 -32 66 -57 70 -56 20 6 250 213 272
245 81 118 80 279 -4 395 -35 48 -204 197 -262 230 -23 14 -67 32 -97 41 -65
19 -216 20 -281 2z"/>
<path d="M4182 2261 c-10 -6 30 -93 159 -352 94 -189 290 -584 436 -876 l265
-533 394 0 394 0 18 29 c9 16 81 158 160 317 79 159 220 444 315 634 l172 345
370 0 370 0 3 -663 2 -662 338 2 337 3 5 660 5 660 377 3 378 2 2 -662 3 -663
338 -3 337 -2 1 332 c1 183 1 336 0 341 -2 15 20 6 48 -21 25 -23 448 -472
570 -604 l44 -48 403 0 c222 0 404 3 404 8 0 7 -42 52 -189 207 -42 44 -166
174 -276 290 -110 116 -239 251 -287 301 -49 49 -88 96 -88 103 0 8 30 48 68
89 37 41 123 139 192 217 69 78 203 231 299 340 134 151 171 199 160 206 -16
10 -748 13 -774 3 -9 -4 -135 -146 -281 -316 -146 -170 -271 -307 -277 -305
-9 3 -13 89 -15 315 l-2 312 -1685 0 -1685 0 -14 -22 c-8 -13 -49 -106 -91
-208 -43 -102 -83 -198 -90 -215 -7 -16 -43 -102 -80 -190 -37 -88 -96 -227
-130 -310 -112 -267 -138 -325 -145 -325 -13 0 -26 24 -69 130 -24 58 -51 123
-61 145 -10 22 -51 119 -90 215 -40 96 -81 195 -92 220 -10 25 -23 54 -28 65
-4 11 -15 36 -23 55 -8 19 -38 91 -67 160 -95 227 -113 265 -124 272 -15 10
-688 10 -704 -1z"/>
<path d="M2528 1882 c-31 -26 -56 -53 -55 -59 1 -7 93 -91 203 -185 698 -599
674 -575 674 -670 0 -33 -7 -72 -15 -88 -19 -36 -184 -183 -240 -213 -32 -17
-57 -22 -120 -22 -104 0 -121 10 -317 183 -27 23 -54 42 -61 42 -7 0 -39 -25
-72 -56 l-60 -55 26 -22 c249 -212 287 -236 411 -257 134 -23 268 14 381 104
175 139 234 213 257 323 20 91 -17 212 -87 289 -15 17 -109 101 -208 185 -98
85 -200 172 -225 195 -146 131 -412 354 -423 354 -6 0 -38 -22 -69 -48z"/>
<path d="M1385 1297 c-113 -98 -135 -122 -165 -181 -32 -62 -35 -77 -35 -150
1 -132 44 -202 205 -338 91 -76 136 -104 201 -127 85 -29 172 -35 255 -18 129
27 138 34 525 369 91 78 243 210 337 291 95 81 172 151 172 155 0 9 -119 107
-130 107 -9 0 -145 -114 -365 -305 -67 -58 -150 -130 -185 -160 -36 -30 -83
-71 -105 -91 -204 -184 -265 -217 -372 -206 -74 8 -138 46 -242 146 -97 93
-119 135 -105 206 10 54 39 90 159 195 60 54 110 101 111 106 2 8 -118 114
-128 114 -2 0 -61 -51 -133 -113z"/>
</g>
</svg>
